<svg xmlns="http://www.w3.org/2000/svg" xmlns:xlink="http://www.w3.org/1999/xlink" version="1.1" x="0px" y="0px" viewBox="0 0 66 82.5" style="enable-background:new 0 0 66 66;" xml:space="preserve"><g>
<path fill="#55203C" d="M57.4,8.7c-10.2-10.2-26.8-10.2-37,0c-10.2,10.2-10.2,26.8,0,37c4.9,4.9,11.5,7.7,18.5,7.7   C62.1,53.3,73.7,25,57.4,8.7z M38.9,51.3c-6.4,0-12.5-2.5-17.1-7.1c-9.4-9.4-9.4-24.7,0-34.1c9.4-9.4,24.7-9.4,34.1,0   C71,25.2,60.3,51.3,38.9,51.3z"/>
<path fill="#9F0A28" d="M32.8,11.1c1.3,0,2.6,0.6,3.5,1.6c-2.2,1-3.5,3.3-3.6,5.6c-0.2,2.9,1.9,5.4,6.1,5.4c4.5,0,6.2-2.2,6.2-5   c0-2.6-1.5-5-3.6-6c0.9-1,2.2-1.5,3.5-1.5c0.5,0,1-0.5,1-1c0-0.6-0.5-1-1-1c-2.2,0-4.3,1.1-5.6,3c-0.3,0-0.6,0-0.9,0   c-1.3-1.9-3.4-3-5.6-3c-0.6,0-1,0.4-1,1C31.8,10.7,32.2,11.1,32.8,11.1z"/>
<path fill="#55203C" d="M14.5,41.2L3.1,52.5c-2.9,2.9-2.9,7.5,0,10.4c2.9,2.9,7.5,2.9,10.4,0l11.3-11.3   C20.6,49.1,16.9,45.4,14.5,41.2z"/>
<path fill="#9F0A28" d="M53.4,34c0.3,0.5,0.9,0.6,1.4,0.3c0.5-0.3,0.6-0.9,0.3-1.4l-2.3-3.8c-0.2-0.3-0.5-0.5-0.9-0.5h-2.7   c-0.5-2.4-1.7-4.6-3.2-6.3c-1.5,2.5-4.3,3.3-7.2,3.3c-3,0-5.4-0.7-7-3.4c-1.6,1.7-2.8,3.9-3.3,6.4h-2.7c-0.3,0-0.7,0.2-0.8,0.5   l-2.3,3.8c-0.3,0.5-0.1,1.1,0.3,1.4c0.5,0.3,1.1,0.1,1.4-0.3l2-3.3h1.8c0,0.5-0.1,1-0.1,1.4c0,1.5,0.2,3,0.6,4.3h-2.9   c-0.3,0-0.7,0.2-0.8,0.5l-2.3,3.8c-0.3,0.5-0.1,1.1,0.3,1.4c0.5,0.3,1.1,0.1,1.4-0.3l2-3.3h3.1c1.9,4,5.4,6.7,9.5,6.7   s7.6-2.7,9.5-6.7h3.1l2,3.3c0.3,0.5,0.9,0.6,1.4,0.3c0.5-0.3,0.6-0.9,0.3-1.4l-2.3-3.8c-0.2-0.3-0.5-0.5-0.9-0.5h-2.9   c0.4-1.4,0.6-2.8,0.6-4.3c0-0.5,0-1-0.1-1.4h1.8L53.4,34z"/>
</g>
<text x="0" y="81" fill="#55203C" font-size="18px" font-weight="bold" font-family="'Helvetica Neue', Helvetica, Arial-Unicode, Arial, Sans-serif">Tracker</text>
</svg>